<?xml version="1.0" standalone="no"?>
<!DOCTYPE svg PUBLIC "-//W3C//DTD SVG 20010904//EN"
 "http://www.w3.org/TR/2001/REC-SVG-20010904/DTD/svg10.dtd">
<svg version="1.0" xmlns="http://www.w3.org/2000/svg"
 width="900.000000pt" height="675.000000pt" viewBox="0 0 900.000000 675.000000"
 preserveAspectRatio="xMidYMid meet">
<metadata>
Created by potrace 1.10, written by Peter Selinger 2001-2011
</metadata>
<g transform="translate(0.000000,675.000000) scale(0.100000,-0.100000)"
fill="#000000" stroke="none">
<path d="M4947 4605 c-48 -48 -115 -121 -149 -163 -35 -41 -79 -93 -99 -115
l-35 -40 -85 12 c-78 11 -201 3 -231 -15 -18 -12 -49 10 -85 59 -91 123 -297
340 -320 335 -18 -3 -104 -169 -150 -288 -57 -145 -72 -260 -73 -539 0 -320
13 -390 92 -496 69 -93 231 -190 358 -214 19 -3 34 -10 33 -16 -1 -5 -42 -19
-90 -31 -181 -47 -305 -112 -403 -214 -87 -90 -140 -216 -140 -327 2 -173 91
-305 271 -399 138 -73 223 -84 655 -84 359 0 475 9 549 40 136 57 227 118 278
187 48 67 62 97 82 180 17 69 17 76 0 150 -33 145 -108 251 -218 306 -72 37
-170 38 -226 3 -69 -44 -86 -79 -85 -171 1 -44 8 -104 18 -134 21 -72 20 -123
-4 -176 -51 -111 -197 -190 -341 -183 -66 3 -82 18 -32 29 61 14 109 43 168
102 55 56 77 89 117 182 9 21 15 108 18 289 l5 260 28 7 c15 4 66 27 114 51
111 55 196 137 244 234 l34 69 3 311 c4 363 -3 427 -63 593 -36 98 -127 283
-142 288 -6 2 -49 -35 -96 -82z m-934 -259 c79 -77 102 -110 90 -129 -4 -7
-44 -45 -88 -84 -44 -38 -92 -86 -105 -106 -14 -20 -30 -37 -37 -37 -6 0 -19
21 -29 46 -18 48 -19 39 16 209 6 27 15 54 20 59 6 6 10 20 10 32 0 22 35 74
50 74 4 0 37 -29 73 -64z m1082 -14 c9 -26 20 -65 25 -87 30 -147 31 -155 20
-194 -19 -70 -26 -68 -147 50 -71 68 -113 116 -113 129 0 11 33 54 79 102 78
80 81 82 100 64 10 -9 27 -38 36 -64z m-1025 -610 c0 -4 -8 -18 -17 -32 -11
-16 -17 -44 -17 -87 0 -58 3 -66 34 -98 29 -30 40 -35 80 -35 38 0 51 5 72 28
28 29 51 114 41 151 -5 21 -4 22 16 9 58 -34 78 -145 41 -218 -66 -129 -252
-119 -350 20 -21 29 -25 47 -25 105 0 51 5 78 18 98 27 42 107 86 107 59z
m888 -6 c15 -8 38 -29 52 -48 20 -28 24 -44 24 -104 0 -68 -1 -74 -38 -118
-76 -93 -200 -124 -279 -71 -44 30 -77 97 -77 155 0 46 29 109 58 127 18 11
20 8 25 -54 4 -56 9 -69 38 -99 28 -29 40 -34 77 -34 36 0 49 5 73 31 26 28
29 38 29 98 -1 38 -7 76 -15 91 -25 44 -15 51 33 26z"/>
</g>
</svg>
