<?xml version="1.0" standalone="no"?>
<!DOCTYPE svg PUBLIC "-//W3C//DTD SVG 20010904//EN"
 "http://www.w3.org/TR/2001/REC-SVG-20010904/DTD/svg10.dtd">
<svg version="1.0" xmlns="http://www.w3.org/2000/svg"
 width="300.000000pt" height="225.000000pt" viewBox="0 0 300.000000 225.000000"
 preserveAspectRatio="xMidYMid meet">
<metadata>
Created by potrace 1.10, written by Peter Selinger 2001-2011
</metadata>
<g transform="translate(0.000000,225.000000) scale(0.100000,-0.100000)"
fill="#000000" stroke="none">
<path d="M1284 1498 c-26 -57 -29 -75 -32 -194 -5 -172 10 -202 123 -246 l39
-15 -55 -16 c-61 -18 -119 -58 -143 -99 -9 -14 -16 -48 -16 -76 0 -40 6 -57
27 -83 50 -59 88 -69 273 -69 185 0 223 10 273 69 50 59 32 166 -33 205 -35
20 -59 20 -89 0 -21 -15 -23 -21 -16 -80 4 -39 2 -70 -5 -83 -15 -29 -62 -51
-107 -51 l-38 1 30 13 c69 31 95 84 95 196 l0 78 47 23 c81 41 88 58 88 222 0
132 -2 146 -26 202 -15 32 -31 61 -37 63 -5 1 -35 -27 -67 -63 l-57 -65 -58 0
-58 0 -57 65 c-31 36 -60 65 -64 65 -5 0 -21 -28 -37 -62z m54 -125 c-23 -23
-46 -39 -51 -36 -11 7 -4 76 12 117 l12 29 34 -33 35 -34 -42 -43z m370 58
c13 -43 15 -84 5 -95 -8 -7 -83 63 -83 78 0 14 41 56 55 56 7 0 17 -17 23 -39z
m-352 -217 c-1 -23 5 -40 15 -47 26 -17 49 -1 49 34 0 27 2 30 15 19 35 -29 6
-100 -41 -100 -36 0 -54 10 -69 41 -16 30 -7 72 17 82 7 3 14 6 14 6 1 1 1
-15 0 -35z m308 20 c25 -24 20 -69 -10 -93 -32 -25 -61 -27 -86 -4 -22 20 -23
52 -3 79 14 18 14 18 15 -6 0 -30 17 -50 41 -50 21 0 33 32 25 66 -7 28 -3 30
18 8z"/>
</g>
</svg>
